<?xml version="1.0" encoding="UTF-8"?>
<svg id="Calque_1" data-name="Calque 1" xmlns="http://www.w3.org/2000/svg" xmlns:xlink="http://www.w3.org/1999/xlink" viewBox="0 0 91.29 132.58">
  <defs>
    <style>
      .cls-1 {
        fill: url(#Dégradé_sans_nom_306);
      }

      .cls-2 {
        fill: url(#Dégradé_sans_nom_306-10);
      }

      .cls-3 {
        fill: url(#Dégradé_sans_nom_306-13);
      }

      .cls-4 {
        fill: url(#Dégradé_sans_nom_306-11);
      }

      .cls-5 {
        fill: url(#Dégradé_sans_nom_306-6);
      }

      .cls-6 {
        fill: url(#Dégradé_sans_nom_306-12);
      }

      .cls-7 {
        fill: url(#Dégradé_sans_nom_306-4);
      }

      .cls-8 {
        fill: url(#Dégradé_sans_nom_306-3);
      }

      .cls-9 {
        fill: url(#Dégradé_sans_nom_306-9);
      }

      .cls-10 {
        fill: url(#Dégradé_sans_nom_306-8);
      }

      .cls-11 {
        fill: url(#Dégradé_sans_nom_306-7);
      }

      .cls-12 {
        fill: url(#Dégradé_sans_nom_306-2);
      }

      .cls-13 {
        fill: url(#Dégradé_sans_nom_306-5);
      }
    </style>
    <linearGradient id="Dégradé_sans_nom_306" data-name="Dégradé sans nom 306" x1="39.3" y1="68.07" x2="1.18" y2="2.04" gradientUnits="userSpaceOnUse">
      <stop offset="0" stop-color="#5d5ff0"/>
      <stop offset="1" stop-color="#8966f7"/>
    </linearGradient>
    <linearGradient id="Dégradé_sans_nom_306-2" data-name="Dégradé sans nom 306" x1="49.58" y1="62.14" x2="16.95" y2="5.62" xlink:href="#Dégradé_sans_nom_306"/>
    <linearGradient id="Dégradé_sans_nom_306-3" data-name="Dégradé sans nom 306" x1="22.32" y1="48.77" x2="6.2" y2="20.85" xlink:href="#Dégradé_sans_nom_306"/>
    <linearGradient id="Dégradé_sans_nom_306-4" data-name="Dégradé sans nom 306" x1="73.12" y1="54.53" x2="61.37" y2="34.17" xlink:href="#Dégradé_sans_nom_306"/>
    <linearGradient id="Dégradé_sans_nom_306-5" data-name="Dégradé sans nom 306" x1="65.64" y1="41.77" x2="55.59" y2="24.36" xlink:href="#Dégradé_sans_nom_306"/>
    <linearGradient id="Dégradé_sans_nom_306-6" data-name="Dégradé sans nom 306" x1="72.77" y1="86.52" x2="46.48" y2="41" xlink:href="#Dégradé_sans_nom_306"/>
    <linearGradient id="Dégradé_sans_nom_306-7" data-name="Dégradé sans nom 306" x1="60.55" y1="126.27" x2="29.14" y2="71.86" xlink:href="#Dégradé_sans_nom_306"/>
    <linearGradient id="Dégradé_sans_nom_306-8" data-name="Dégradé sans nom 306" x1="50.85" y1="104.05" x2="33.66" y2="74.28" xlink:href="#Dégradé_sans_nom_306"/>
    <linearGradient id="Dégradé_sans_nom_306-9" data-name="Dégradé sans nom 306" x1="29.51" y1="109.69" x2="24.53" y2="101.07" xlink:href="#Dégradé_sans_nom_306"/>
    <linearGradient id="Dégradé_sans_nom_306-10" data-name="Dégradé sans nom 306" x1="26.57" y1="120.01" x2="12.41" y2="95.49" xlink:href="#Dégradé_sans_nom_306"/>
    <linearGradient id="Dégradé_sans_nom_306-11" data-name="Dégradé sans nom 306" x1="50.25" y1="114.43" x2="49.21" y2="112.63" xlink:href="#Dégradé_sans_nom_306"/>
    <linearGradient id="Dégradé_sans_nom_306-12" data-name="Dégradé sans nom 306" x1="44.77" y1="117.2" x2="41.38" y2="111.33" xlink:href="#Dégradé_sans_nom_306"/>
    <linearGradient id="Dégradé_sans_nom_306-13" data-name="Dégradé sans nom 306" x1="49.58" y1="114.41" x2="46.07" y2="108.33" xlink:href="#Dégradé_sans_nom_306"/>
  </defs>
  <path class="cls-1" d="M37.09,69.23c-.18,0-.35-.06-.49-.19-.29-.27-.31-.73-.04-1.02,2.41-2.6,5.01-8.12,2.92-11.71-1.8-3.08-5.79-3.19-9.45-2.89-7.15.59-13.51-1.38-17.93-5.56-.31-.3-.46-.68-.41-1.07.1-.79.95-1.3,1.12-1.4,0,0,0,0,0,0,.19-.11.42-.12.61-.04.85.17,6.7.84,9,.32,2.72-.61,4.79-.92,7.38-.64,4.36.47,8.54,1.14,11.65,4.24.26.25.51.37.58.35h0s0-.08,0-.19c.02-1.53-2.83-5.66-5.53-7.5-4.19-2.85-8.71-4.52-13.36-6.12-.96-.33-1.73-.92-2.47-1.5-.61-.47-1.19-.92-1.83-1.19-3.76-1.56-7.11-4.02-10.54-7.74C2.97,19.62.78,11.55,2.28,3.25c.21-1.18.67-2.49,2.43-3.19.21-.08.45-.07.64.05.19.12.32.32.35.55,1.08,10.55,13.32,19.71,21.73,22.26.38.12.6.52.48.9s-.52.6-.9.48C18.51,21.72,6.26,12.61,4.42,1.91c-.41.39-.58.91-.71,1.6-1.42,7.86.64,15.48,5.65,20.9,3.29,3.56,6.47,5.91,10.03,7.38.82.34,1.5.87,2.16,1.38.68.53,1.32,1.02,2.06,1.27,4.75,1.63,9.37,3.34,13.71,6.29,2.72,1.85,6.2,6.41,6.16,8.72-.01.62-.27,1.12-.72,1.41-.66.42-1.56.2-2.33-.56-2.79-2.77-6.54-3.37-10.79-3.82-2.4-.26-4.28.02-6.91.61-1.48.34-4.03.24-5.9.1-1.91-.14-2.95-.25-3.53-.37-.04.04-.08.07-.11.1,4.11,3.83,10.04,5.62,16.72,5.07,4.11-.34,8.62-.18,10.82,3.6,2.49,4.26-.32,10.41-3.11,13.42-.14.15-.34.23-.53.23Z"/>
  <path class="cls-12" d="M37.09,69.23c-.18,0-.36-.07-.5-.2-.29-.28-.29-.74-.01-1.02.78-.81,1.73-1.4,2.64-1.98.61-.38,1.24-.78,1.82-1.24,3.85-3.04,6.15-7.17,6.65-11.93.7-6.59-2.52-13.25-8.6-17.8-.4-.3-.85-.63-1.32-.98-3.85-2.85-9.13-6.74-10.72-9.62-.03-.06-.06-.12-.07-.18-.13-.05-.25-.14-.34-.26-4.46-6.38-5.45-14.64-2.63-22.09.25-.67.92-.98,1.43-.98h0c1.14,0,1.44,1.18,1.89,2.96.68,2.7,1.83,7.23,6.33,11.82,1.94,1.98,3.88,3.7,5.75,5.37,5.31,4.73,9.9,8.82,11.91,16.22.2.73-.14,1.78-.86,1.98-.57.17-1.77-.22-2.1-.79-4.38-7.47-10.94-9.99-18.54-12.83,2.25,2.38,6.08,5.2,8.82,7.23.48.35.93.68,1.33.99,6.49,4.86,9.92,12,9.18,19.11-.54,5.16-3.03,9.63-7.19,12.91-.64.51-1.31.93-1.95,1.33-.88.55-1.71,1.08-2.38,1.76-.14.15-.33.22-.52.22ZM49.55,37.71c.08.05.23.1.36.14.01-.06.01-.12,0-.16-1.89-6.99-6.33-10.94-11.47-15.52-1.89-1.68-3.84-3.42-5.82-5.44-4.78-4.87-5.98-9.63-6.7-12.48-.18-.73-.39-1.54-.56-1.83,0,0,0,0,0,0-2.64,7.01-1.72,14.76,2.47,20.75.05.08.09.16.11.25,0,0,0,0,0,0,.72.27,1.43.54,2.14.8,7.94,2.97,14.79,5.53,19.48,13.47Z"/>
  <path class="cls-8" d="M26.2,46.33c-1.69,0-3.63-.19-5.43-1.44C10.69,43.31,2.62,36.01.18,26.25l-.04-.15c-.15-.59-.38-1.48.51-2.05.8-.51,1.61-.34,2.41.51,5.82,6.12,12.15,8.38,21.12,10.2.39.08.64.46.56.85-.08.39-.46.65-.85.56-9.25-1.89-15.8-4.23-21.88-10.62-.38-.4-.46-.37-.58-.29,0,.11.06.32.1.48l.04.16c2.31,9.24,9.99,16.14,19.57,17.58.11.02.22.06.32.13,1.55,1.13,3.26,1.27,4.88,1.26h0c.4,0,.72.32.72.72,0,.4-.32.73-.72.73-.05,0-.11,0-.16,0Z"/>
  <path class="cls-7" d="M86.17,24.01c-2.58.79-5.48,1.14-7.94,2.13-2.08.96-3.93,2.63-5.64,4.18-4.24,4.17-3.55,10.7-4.29,16.27-.7,5.67-3.45,11.18-7.94,14.79-3.63,2.86-7.67,5.09-11.99,6.68-.71.32-1.51.37-2.19.4-.3.04-.38.1-.49.21-.28.29-.74.29-1.02.01-.78-.87.68-1.66,1.33-1.65.75-.05,1.25-.05,1.88-.33,4.14-1.52,8.11-3.72,11.56-6.44,4.22-3.4,6.76-8.52,7.42-13.87.34-2.68.37-5.5.79-8.3.42-2.84,1.24-5.77,3.17-8.02,2.02-2.07,4.17-3.97,6.82-5.25,2.7-1.1,5.41-1.37,8.13-2.2,1.85-.27,3.49-.57,5.5-.11-1.73.49-3.41.98-5.11,1.5h0Z"/>
  <path class="cls-13" d="M73.47,26.54c-.78-.36-2.67-1.21-3.41-1.55-1.76-.86-3.68-1.42-5.62-1.04-3.19.56-6.49,3-9.85,2.65.02-.01.07-.07.07-.1.01-.02,0-.02,0,.02.02.2.14.28.33.41.64.38,1.47.52,2.23.85,1.06.4,1.58,1.33,1,2.39,0,0-.24.57-.24.57-.64,1.51-1.22,3.05-1.7,4.62-.45,1.7-1.55,3.53-3.18,4.34-.78.44-1.47.75-1.89,1.23l-1.08-.96c.27-.33.95-.32,1.19.15.08.15.12.35.16.52.42,1.74.89,3.61,1.07,5.4,0,1.12-.31,2.43-.52,3.59-.41-1.18-.76-2.34-.93-3.49-.13-1.28-.49-2.76-.76-4.03-.09-.38-.23-.99-.34-1.36,0,0-.01-.04,0-.02.05.11.08.17.21.29.1.08.27.16.45.16.36-.02.49-.19.55-.25,0,0-1.08-.96-1.08-.96,1.29-1.36,2.93-1.46,3.85-2.96.85-1.3,1.13-3.03,1.73-4.48.36-.98.77-1.97,1.18-2.93.05-.11.12-.27.13-.31,0,.03.05.09-.02.02-1.24-.75-3.66-.78-3.78-2.72-.1-.91.74-1.49,1.51-1.47,3.2.31,5.91-1.99,9.47-2.6,1.55-.29,3.18-.1,4.66.39.95.35,2.01.86,2.93,1.27,0,0,2.27,1.04,2.27,1.04.85.41.28,1.69-.6,1.32h0Z"/>
  <path class="cls-5" d="M45.25,100.85c-1.37,0-2.73-.29-4.01-.9l-3.85-1.85c-.36-.17-.51-.61-.34-.97.17-.36.61-.51.97-.34l3.85,1.85c3.99,1.91,9.09.09,11.15-3.99.83-1.65.88-3.39.13-4.63-.02,0-.1-.02-.23,0-.01.05-.03.11-.04.17-.02.11-.05.24-.09.36-.9,3.17-4.27,4.98-7.68,4.12-4.59-1.15-7.78-5.15-8.51-10.69-.44-3.28.5-6.37,1.58-9.51.81-2.37,2.77-4.59,5.22-5.96,1.18-.65,2.09-1.52,3.06-2.44.61-.58,1.24-1.18,1.96-1.73.61-.47,1.22-.93,1.84-1.39,2.79-2.09,5.42-4.06,7.35-6.93,2.93-4.34,3.21-8.6,3.49-12.72.2-2.97.39-5.78,1.6-8.32,3.01-6.34,7.21-7.69,12.07-9.27,1.19-.38,2.41-.78,3.69-1.27.37-.14.79.04.93.42s-.04.79-.42.93c-1.31.5-2.56.9-3.76,1.29-4.73,1.53-8.46,2.74-11.2,8.51-1.09,2.29-1.27,4.96-1.46,7.79-.28,4.11-.59,8.77-3.74,13.43-2.07,3.07-4.93,5.21-7.69,7.28-.61.45-1.21.91-1.82,1.38-.66.51-1.26,1.08-1.85,1.64-.99.94-2.01,1.91-3.35,2.65-2.15,1.2-3.85,3.13-4.56,5.16-1.02,2.97-1.91,5.88-1.51,8.84.65,4.94,3.43,8.48,7.43,9.48,2.65.66,5.26-.7,5.94-3.11.03-.1.05-.19.07-.28.08-.37.22-.99.88-1.2.89-.29,1.65-.07,2.04.59,1.01,1.67.98,3.93-.08,6.03-1.75,3.47-5.4,5.54-9.06,5.54Z"/>
  <path class="cls-11" d="M49.21,132.58c-.2,0-.37-.05-.51-.11-.29-.13-.76-.49-.74-1.47.13-5.76-4.21-8.79-7.71-11.23-.8-.56-1.57-1.09-2.23-1.63-1.62-1.29-3.28-2.29-5.05-3.35-1.02-.61-2.07-1.24-3.11-1.93-7.29-4.83-10.91-13.54-9.46-22.72.05-.32.16-.63.25-.9.16-.46.22-.68.18-.83-1.23.84-1.89,3-2.54,5.1-.14.44-.27.89-.41,1.31-.62,1.9-3.31,5.73-5.64,6.04-.83.11-1.55-.24-2.03-.97-.14-.21-.15-.48-.04-.71,1.27-2.57,2.15-5.33,2.79-8.67,1.3-6.8,5.16-12.23,11.15-15.7.52-.3,1.04-.61,1.56-.92,1.93-1.14,3.93-2.32,6.06-3.22.31-.13.61-.25.91-.37,1.24-.5,2.41-.97,3.48-1.92.3-.27.75-.24,1.02.06.27.3.24.75-.05,1.02-1.23,1.11-2.11,2.49-3.04,3.95-.42.65-.85,1.33-1.32,1.99-3.84,5.41-5.63,9.93-5.83,14.65-.21,5.13,1.53,9.93,4.77,13.18,2.9,2.91,6.76,4.37,11.16,4.22,4.9-.89,8.98-3.47,12.93-5.98,3.36-2.13,6.53-4.14,10.15-5.18,7.3-2.09,13.39.67,16.7,7.57.12.26.08.57-.11.79-.19.22-.49.3-.76.22-1.14-.36-2.26-.84-3.53-1.54-5.37-2.93-10.82-.03-15.44,3.19l-.52.36c-3.75,2.62-7.3,5.09-11.46,7.07.23.48.46.93.69,1.37.53,1.03,1.03,2.01,1.43,3.15,2.18,6.32-.19,11.56-2.2,13.39-.63.57-1.14.75-1.53.75ZM20.97,86.79c.14,0,.28.04.39.12,1.35.87.92,2.08.67,2.81-.08.23-.16.45-.19.65-1.36,8.62,2.02,16.77,8.83,21.29,1.02.68,2.06,1.3,3.06,1.9,1.73,1.04,3.52,2.11,5.21,3.46.63.5,1.37,1.02,2.16,1.57,3.58,2.5,8.48,5.92,8.32,12.45h0c.29-.18.78-.62,1.32-1.46.69-1.08,2.77-5.05.84-10.65-.36-1.04-.84-1.97-1.35-2.96-.33-.65-.68-1.32-1.02-2.08-.16-.36,0-.79.36-.96,4.33-1.97,8-4.53,11.9-7.25l.52-.36c4.98-3.47,10.89-6.57,16.96-3.27.51.28,1,.52,1.47.74-3.11-4.94-8.14-6.8-14.07-5.11-3.42.98-6.51,2.93-9.77,5.01-4.08,2.59-8.3,5.26-13.5,6.19-.03,0-.07,0-.1.01-4.84.18-9.09-1.43-12.29-4.65-3.52-3.54-5.42-8.74-5.19-14.26.2-5.02,2.08-9.77,6.09-15.43.45-.64.87-1.3,1.28-1.93.24-.38.48-.76.73-1.14-.13.05-.25.1-.38.15-.29.12-.59.24-.89.36-2.04.86-3.91,1.97-5.89,3.14-.52.31-1.04.62-1.57.92-5.62,3.25-9.24,8.34-10.46,14.72-.63,3.29-1.49,6.03-2.7,8.6.12.07.24.08.37.06,1.38-.18,3.84-3.17,4.45-5.05.14-.42.27-.85.4-1.29.81-2.63,1.64-5.35,3.77-6.23.09-.04.18-.05.27-.05ZM42.93,108.15h0,0Z"/>
  <path class="cls-10" d="M44.07,107.86c-.2,0-.41-.09-.55-.25l-6.04-7.05c-.92-1.07-1.53-2.31-2.12-3.5-.35-.71-.72-1.44-1.14-2.12-2.59-4.19-3.32-8.81-2.13-13.38,1.29-4.92,4.8-9.26,9.63-11.93.35-.19.79-.07.98.28.19.35.07.79-.28.98-4.49,2.48-7.74,6.49-8.93,11.03-1.09,4.17-.42,8.41,1.96,12.25.46.74.83,1.5,1.2,2.24.58,1.17,1.13,2.27,1.93,3.2l6.04,7.05c.26.3.22.76-.08,1.02-.14.12-.3.17-.47.17Z"/>
  <path class="cls-9" d="M27.63,109.24c.55-1.2-.19-2.53-.52-3.82-.5-2.43-1.17-5-1.13-5.18,1.07,1.69,1.89,3.03,2.52,4.79.42,1.49,1.24,3.2.43,4.84-.43.86-1.72.23-1.3-.63h0Z"/>
  <path class="cls-2" d="M21.7,122.5c-.56,0-1.13-.2-1.42-.56-.43-.54-.26-1.46,0-1.94,2.3-4.33.74-8.36-1.07-13.02-1.65-4.25-3.35-8.65-2.28-13.82.08-.39.46-.64.86-.56.39.08.64.46.56.86-.98,4.75.64,8.95,2.21,13,1.85,4.78,3.6,9.3,1,14.22-.05.09-.08.24-.09.35.16.04.39.04.47,0,3.91-2.58,4.65-4.84,5.83-9.31.1-.39.5-.62.88-.52.39.1.62.5.52.88-1.2,4.57-2.1,7.29-6.43,10.15-.28.19-.66.28-1.03.28ZM21.47,121.15h0,0ZM21.35,120.98h0Z"/>
  <path class="cls-4" d="M49.66,114.56c-.49,0-.92-.35-1-.85-.09-.55.28-1.07.84-1.16l.13-.02c.55-.09,1.07.28,1.16.84.09.55-.28,1.07-.84,1.16l-.13.02c-.06,0-.11.01-.17.01Z"/>
  <path class="cls-6" d="M39.69,115.99c-1.34,0-2.53-.09-3.37-.29-.39-.09-.63-.48-.54-.87.09-.39.48-.63.87-.54,2.73.64,10.13,0,12.65-1.38.35-.19.79-.06.98.29.19.35.06.79-.29.98-2.08,1.14-6.74,1.81-10.32,1.81Z"/>
  <path class="cls-3" d="M49.07,113.96l-1.6-2.24c-.72-.91-1.66-1.77-2.4-2.66.97-1.51,2.88.92,3.58,1.82l1.6,2.24c.54.78-.61,1.61-1.18.84h0Z"/>
</svg>